<svg xmlns="http://www.w3.org/2000/svg">
    
<defs>
    <g id="date"><!-- 465 -->
        <path d="M142.5,35H345v47.5c0,4.143,3.358,7.5,7.5,7.5s7.5-3.357,7.5-7.5V27.51l0-0.01l0-0.01V7.5c0-4.143-3.358-7.5-7.5-7.5
		S345,3.357,345,7.5V20H142.5c-4.142,0-7.5,3.357-7.5,7.5S138.358,35,142.5,35z"/>
	<path d="M432.5,20h-50c-4.142,0-7.5,3.357-7.5,7.5s3.358,7.5,7.5,7.5H425v95H40V35h65v47.5c0,4.143,3.358,7.5,7.5,7.5
		s7.5-3.357,7.5-7.5v-75c0-4.143-3.358-7.5-7.5-7.5S105,3.357,105,7.5V20H32.5c-4.142,0-7.5,3.357-7.5,7.5v370
		c0,4.143,3.358,7.5,7.5,7.5h330c0.251,0,0.501-0.013,0.749-0.038c0.186-0.019,0.368-0.05,0.549-0.082
		c0.059-0.01,0.119-0.015,0.178-0.026c0.214-0.043,0.423-0.099,0.63-0.158c0.026-0.008,0.054-0.013,0.08-0.021
		c0.208-0.063,0.41-0.138,0.609-0.218c0.027-0.011,0.054-0.019,0.081-0.029c0.189-0.079,0.371-0.168,0.552-0.261
		c0.037-0.02,0.076-0.035,0.112-0.055c0.165-0.088,0.323-0.187,0.48-0.287c0.05-0.031,0.102-0.059,0.151-0.092
		c0.146-0.098,0.285-0.205,0.423-0.313c0.055-0.043,0.113-0.081,0.167-0.125c0.169-0.139,0.33-0.287,0.486-0.439
		c0.018-0.019,0.039-0.033,0.057-0.052l70-70c0.015-0.015,0.027-0.031,0.042-0.046c0.157-0.16,0.308-0.324,0.451-0.498
		c0.039-0.047,0.071-0.098,0.109-0.145c0.114-0.146,0.227-0.292,0.33-0.446c0.028-0.041,0.05-0.085,0.077-0.127
		c0.106-0.164,0.209-0.331,0.301-0.504c0.017-0.03,0.029-0.063,0.045-0.094c0.096-0.187,0.188-0.375,0.269-0.569
		c0.009-0.022,0.015-0.045,0.024-0.066c0.082-0.204,0.159-0.411,0.223-0.623c0.008-0.025,0.012-0.052,0.02-0.077
		c0.061-0.208,0.116-0.418,0.159-0.632c0.012-0.061,0.017-0.122,0.028-0.183c0.031-0.181,0.063-0.36,0.081-0.545
		c0.025-0.248,0.038-0.498,0.038-0.749v-300C440,23.357,436.642,20,432.5,20z M40,145h385v175h-62.5c-4.142,0-7.5,3.357-7.5,7.5V390
		H40V145z M414.394,335L370,379.394V335H414.394z"/>
	<path d="M432.5,450h-400c-4.142,0-7.5,3.357-7.5,7.5s3.358,7.5,7.5,7.5h400c4.142,0,7.5-3.357,7.5-7.5S436.642,450,432.5,450z"/>
	<path d="M432.5,350c-4.142,0-7.5,3.357-7.5,7.5V420H40v-2.5c0-4.143-3.358-7.5-7.5-7.5s-7.5,3.357-7.5,7.5v10
		c0,4.143,3.358,7.5,7.5,7.5h400c4.142,0,7.5-3.357,7.5-7.5v-70C440,353.357,436.642,350,432.5,350z"/>
	<path d="M288.954,207.071c-2.801-1.16-6.028-0.521-8.173,1.625l-21.4,21.399c-2.929,2.93-2.929,7.678,0,10.607
		c2.929,2.928,7.678,2.928,10.606,0l8.597-8.597V321c0,4.143,3.358,7.5,7.5,7.5s7.5-3.357,7.5-7.5V214
		C293.583,210.967,291.756,208.231,288.954,207.071z"/>
	<path d="M206.8,206.5c-19.511,0-35.384,15.873-35.384,35.384c0,4.143,3.358,7.5,7.5,7.5s7.5-3.357,7.5-7.5
		c0-11.239,9.144-20.384,20.384-20.384c11.239,0,20.383,9.145,20.383,20.384c0,8.15-4.839,15.502-12.329,18.729
		c-2.751,1.185-4.533,3.893-4.533,6.888s1.782,5.703,4.533,6.888c7.489,3.227,12.329,10.578,12.329,18.729
		c0,11.239-9.144,20.384-20.383,20.384c-11.24,0-20.384-9.145-20.384-20.384c0-4.143-3.358-7.5-7.5-7.5s-7.5,3.357-7.5,7.5
		c0,19.511,15.873,35.384,35.384,35.384c19.51,0,35.383-15.873,35.383-35.384c0-9.866-4.085-19.058-10.966-25.616
		c6.881-6.559,10.966-15.75,10.966-25.616C242.184,222.373,226.311,206.5,206.8,206.5z"/>
    </g>

    <g id="d3"><!--457.478-->
        <path d="m423.173,110.709l-189.434-109.369c-3.094-1.786-6.906-1.786-10-3.33067e-15l-189.433,109.369c-3.094,1.786-5,5.087-5,8.66v218.739c0,3.573 1.906,6.874 5,8.66l189.434,109.37c1.547,0.893 3.273,1.34 5,1.34s3.453-0.447 5-1.34l189.434-109.37c3.094-1.786 5-5.087 5-8.66v-218.739c-0.001-3.572-1.908-6.874-5.001-8.66zm-15,206.884l-6.459-3.729c-4.781-2.762-10.898-1.123-13.66,3.66-2.762,4.783-1.123,10.899 3.66,13.661l9.226,5.327-162.201,93.647v-188.638c0.128,0.005 0.255,0.024 0.383,0.024 3.456,0 6.817-1.793 8.67-5.001 1.421-2.46 1.669-5.271 0.932-7.799l159.449-92.058v180.906zm-338.747-.069c-2.761-4.782-8.874-6.422-13.66-3.66l-6.46,3.729v-180.905l159.449,92.058c-0.737,2.527-0.488,5.338 0.932,7.798 1.853,3.208 5.213,5.001 8.67,5.001 0.127,0 0.255-0.02 0.383-0.024v188.637l-162.202-93.647 9.227-5.327c4.784-2.761 6.422-8.877 3.661-13.66zm159.314-275.941c5.522,2.84217e-14 10-4.477 10-10v-4.263l159.431,92.048-159.634,92.165c-0.931-4.559-4.964-7.989-9.797-7.989-4.834,0-8.867,3.43-9.798,7.99l-159.635-92.166 159.433-92.048v4.264c0,5.522 4.478,9.999 10,9.999z"/>
		<path d="m304.003,280.544l17.839,10.3c1.575,0.909 3.294,1.341 4.99,1.341 3.456,0 6.817-1.793 8.67-5.001 2.762-4.783 1.123-10.898-3.66-13.66l-17.839-10.3c-4.784-2.761-10.898-1.123-13.66,3.66s-1.123,10.898 3.66,13.66z"/>
		<path d="m260.147,255.224l17.84,10.299c1.575,0.91 3.294,1.341 4.99,1.341 3.456,0 6.818-1.793 8.67-5.001 2.762-4.783 1.123-10.899-3.66-13.66l-17.84-10.299c-4.784-2.763-10.899-1.123-13.66,3.66-2.762,4.783-1.123,10.899 3.66,13.66z"/>
		<path d="m347.857,305.864l17.84,10.3c1.575,0.909 3.294,1.341 4.99,1.341 3.456,0 6.818-1.793 8.67-5.001 2.762-4.783 1.123-10.899-3.66-13.66l-17.84-10.3c-4.784-2.762-10.9-1.123-13.66,3.66-2.762,4.783-1.123,10.899 3.66,13.66z"/>
		<path d="m174.501,266.865c1.696,0 3.416-0.432 4.99-1.341l17.84-10.3c4.783-2.761 6.422-8.877 3.66-13.66-2.761-4.783-8.877-6.421-13.66-3.66l-17.84,10.3c-4.783,2.761-6.422,8.877-3.66,13.66 1.852,3.209 5.213,5.001 8.67,5.001z"/>
		<path d="m86.791,317.505c1.696,0 3.415-0.432 4.99-1.341l17.84-10.299c4.783-2.761 6.422-8.877 3.66-13.66-2.76-4.782-8.874-6.421-13.66-3.66l-17.84,10.299c-4.783,2.761-6.422,8.877-3.66,13.66 1.852,3.208 5.213,5.001 8.67,5.001z"/>
		<path d="m130.646,292.185c1.696,0 3.416-0.432 4.99-1.341l17.839-10.3c4.783-2.762 6.422-8.877 3.66-13.66-2.761-4.783-8.877-6.421-13.66-3.66l-17.839,10.3c-4.783,2.762-6.422,8.877-3.66,13.66 1.853,3.208 5.213,5.001 8.67,5.001z"/>
		<path d="M218.74,82.223c0,5.523,4.478,10,10,10s10-4.477,10-10V61.624c0-5.523-4.478-10-10-10s-10,4.477-10,10V82.223z"/>
		<path d="m228.74,102.264c-5.522,0-10,4.477-10,10v20.599c0,5.523 4.478,10 10,10s10-4.477 10-10v-20.599c0-5.523-4.477-10-10-10z"/>
		<path d="m228.74,152.904c-5.522,0-10,4.477-10,10v20.599c0,5.523 4.478,10 10,10s10-4.477 10-10v-20.599c0-5.523-4.477-10-10-10z"/>
    </g>

	<g id="about"><!--24-->
		<path d="M3.51211712,15 L8.17190229,15 C8.05949197,14.0523506 8,13.0444554 8,12 C8,10.9555446 8.05949197,9.94764942 8.17190229,9 L3.51211712,9 C3.18046266,9.93833678 3,10.9480937 3,12 C3,13.0519063 3.18046266,14.0616632 3.51211712,15 L3.51211712,15 Z M3.93551965,16 C5.12590433,18.3953444 7.35207678,20.1851177 10.0280093,20.783292 C9.24889451,19.7227751 8.65216136,18.0371362 8.31375067,16 L3.93551965,16 L3.93551965,16 Z M20.4878829,15 C20.8195373,14.0616632 21,13.0519063 21,12 C21,10.9480937 20.8195373,9.93833678 20.4878829,9 L15.8280977,9 C15.940508,9.94764942 16,10.9555446 16,12 C16,13.0444554 15.940508,14.0523506 15.8280977,15 L20.4878829,15 L20.4878829,15 Z M20.0644804,16 L15.6862493,16 C15.3478386,18.0371362 14.7511055,19.7227751 13.9719907,20.783292 C16.6479232,20.1851177 18.8740957,18.3953444 20.0644804,16 L20.0644804,16 Z M9.18440269,15 L14.8155973,15 C14.9340177,14.0623882 15,13.0528256 15,12 C15,10.9471744 14.9340177,9.93761183 14.8155973,9 L9.18440269,9 C9.06598229,9.93761183 9,10.9471744 9,12 C9,13.0528256 9.06598229,14.0623882 9.18440269,15 L9.18440269,15 Z M9.3349823,16 C9.85717082,18.9678295 10.9180729,21 12,21 C13.0819271,21 14.1428292,18.9678295 14.6650177,16 L9.3349823,16 L9.3349823,16 Z M3.93551965,8 L8.31375067,8 C8.65216136,5.96286383 9.24889451,4.27722486 10.0280093,3.21670804 C7.35207678,3.81488234 5.12590433,5.60465556 3.93551965,8 L3.93551965,8 Z M20.0644804,8 C18.8740957,5.60465556 16.6479232,3.81488234 13.9719907,3.21670804 C14.7511055,4.27722486 15.3478386,5.96286383 15.6862493,8 L20.0644804,8 L20.0644804,8 Z M9.3349823,8 L14.6650177,8 C14.1428292,5.03217048 13.0819271,3 12,3 C10.9180729,3 9.85717082,5.03217048 9.3349823,8 L9.3349823,8 Z M12,22 C6.4771525,22 2,17.5228475 2,12 C2,6.4771525 6.4771525,2 12,2 C17.5228475,2 22,6.4771525 22,12 C22,17.5228475 17.5228475,22 12,22 Z"/>
	</g>

	<g id="list"><!--489.7-->
		<path d="M52.7,134.75c29.1,0,52.7-23.7,52.7-52.7s-23.6-52.8-52.7-52.8S0,52.95,0,81.95S23.7,134.75,52.7,134.75z M52.7,53.75
			c15.6,0,28.2,12.7,28.2,28.2s-12.7,28.2-28.2,28.2s-28.2-12.7-28.2-28.2S37.2,53.75,52.7,53.75z"/>
		<path d="M52.7,297.55c29.1,0,52.7-23.7,52.7-52.7s-23.6-52.7-52.7-52.7S0,215.75,0,244.85S23.7,297.55,52.7,297.55z M52.7,216.65
			c15.6,0,28.2,12.7,28.2,28.2s-12.7,28.2-28.2,28.2s-28.2-12.6-28.2-28.2S37.2,216.65,52.7,216.65z"/>
		<path d="M52.7,460.45c29.1,0,52.7-23.7,52.7-52.7c0-29.1-23.7-52.7-52.7-52.7S0,378.75,0,407.75C0,436.75,23.7,460.45,52.7,460.45
			z M52.7,379.45c15.6,0,28.2,12.7,28.2,28.2c0,15.6-12.7,28.2-28.2,28.2s-28.2-12.7-28.2-28.2C24.5,392.15,37.2,379.45,52.7,379.45
			z"/>
		<path d="M175.9,94.25h301.5c6.8,0,12.3-5.5,12.3-12.3s-5.5-12.3-12.3-12.3H175.9c-6.8,0-12.3,5.5-12.3,12.3
			S169.1,94.25,175.9,94.25z"/>
		<path d="M175.9,257.15h301.5c6.8,0,12.3-5.5,12.3-12.3s-5.5-12.3-12.3-12.3H175.9c-6.8,0-12.3,5.5-12.3,12.3
			S169.1,257.15,175.9,257.15z"/>
		<path d="M175.9,419.95h301.5c6.8,0,12.3-5.5,12.3-12.3s-5.5-12.3-12.3-12.3H175.9c-6.8,0-12.3,5.5-12.3,12.3
			S169.1,419.95,175.9,419.95z"/>
	</g>

	<g id="help"><!--45.333-->
		<path d="M38.291,4.927c-1.2-1.142-1.792-1.316-1.3-0.481c0.302,0.513,0.555,1.039,0.757,1.58
		c0.543,1.457,0.815,2.814,0.815,4.074c0,2.087-0.272,3.803-0.815,5.15c-0.545,1.347-1.217,2.499-2.021,3.454
		c-0.805,0.957-1.694,1.772-2.672,2.445c-0.978,0.675-1.903,1.347-2.771,2.021c-0.87,0.674-1.641,1.445-2.315,2.314
		c-0.353,0.455-0.637,0.97-0.853,1.544c-0.344,0.915-0.419,2.27-0.419,2.954s-1.97,1.238-4.399,1.238s-4.399-0.657-4.399-1.467
		v-1.467c0.131-1.867,0.488-3.432,1.075-4.693c0.587-1.26,1.271-2.336,2.053-3.227c0.783-0.889,1.607-1.662,2.477-2.314
		c0.868-0.652,1.673-1.303,2.412-1.956c0.739-0.652,1.337-1.369,1.793-2.151c0.456-0.782,0.661-1.759,0.619-2.933
		c0-1.999-0.488-3.476-1.466-4.433c-0.978-0.956-2.338-1.434-4.074-1.434c-1.174,0-2.184,0.228-3.033,0.684
		c-0.847,0.456-1.542,1.065-2.085,1.826c-0.545,0.76-0.946,1.651-1.206,2.672c-0.134,0.525-0.234,1.07-0.299,1.635
		c-0.105,0.912-2.237,1.658-4.883,1.658s-4.8-1.489-4.475-3.282c0.201-1.109,0.498-2.166,0.89-3.171
		c0.759-1.956,1.825-3.651,3.193-5.085c0.047-0.05,0.098-0.096,0.148-0.142c0.084-0.076-1.022,0.527-2.327,1.548
		C3.409,7.636,0,14.09,0,21.344c0,10.014,6.496,18.507,15.503,21.505c1.572,0.523,2.256,0.143,1.852-0.834
		c-0.238-0.576-0.37-1.205-0.37-1.866c0-2.772,2.291-5.019,5.116-5.019s5.116,2.247,5.116,5.019c0,0.716-0.155,1.395-0.434,2.009
		c-0.472,1.042,0.127,1.51,1.728,1.084c9.685-2.577,16.822-11.402,16.822-21.899C45.336,14.882,42.63,9.055,38.291,4.927z"/>
	</g>
	<g id="links"><!--283.8-->
		<path d="M265.117,22.764l-9.877-8.737c-23.003-20.398-58.227-18.283-78.618,4.726l-28.267,31.89
			c-6.38,7.199-5.717,18.251,1.479,24.637l2.653,2.354c7.221,6.402,18.239,5.741,24.646-1.481l28.265-31.889
			c6.305-7.107,17.227-7.761,24.338-1.466l9.865,8.752c7.113,6.303,7.783,17.223,1.469,24.334l-61.808,69.726
			c-5.231,5.911-13.791,7.505-20.816,3.875c-7.682-3.967-17.051-2.224-22.787,4.245l-0.482,0.544
			c-3.881,4.377-5.499,10.188-4.439,15.943c1.061,5.752,4.642,10.604,9.825,13.313c8.197,4.284,17.049,6.358,25.814,6.358
			c15.532,0,30.795-6.512,41.67-18.775l61.804-69.718C290.219,78.417,288.099,43.148,265.117,22.764z"/>
		<path d="M133.998,208.581l-2.659-2.356c-7.204-6.383-18.259-5.712-24.64,1.489l-28.254,31.886
		c-6.308,7.105-17.222,7.764-24.327,1.473l-9.879-8.764c-7.115-6.301-7.783-17.212-1.467-24.325l61.806-69.721
		c5.124-5.787,13.555-7.442,20.504-4.028c7.986,3.924,17.683,2.016,23.595-4.656l0.222-0.25c3.798-4.288,5.396-9.979,4.386-15.614
		c-1.01-5.636-4.484-10.417-9.533-13.119c-22.828-12.22-50.769-7.22-67.947,12.165l-61.81,69.707v0.001
		c-20.371,22.978-18.252,58.246,4.726,78.622l9.877,8.749c10.583,9.383,23.77,13.992,36.913,13.992
		c15.394,0,30.724-6.327,41.718-18.724l28.258-31.886C141.88,226.003,141.224,214.987,133.998,208.581z"/>
	</g>
</defs>
</svg>
